<svg xmlns="http://www.w3.org/2000/svg" width="830" height="622" fill="none" style=""><rect id="backgroundrect" width="100%" height="100%" x="0" y="0" fill="none" stroke="none"/>










<g class="currentLayer" style=""><title>Layer 1</title><path opacity="0.5" d="M634 88L648.797 73.3975C654.639 67.633 664.028 67.633 669.869 73.3975L674.131 77.6025C679.972 83.367 689.361 83.367 695.203 77.6025L710 63" stroke="#4E887A" stroke-width="13" stroke-linecap="round" id="svg_1"/><path opacity="0.5" d="M715 100L729.797 85.3975C735.639 79.633 745.028 79.633 750.869 85.3975L755.131 89.6025C760.972 95.367 770.361 95.367 776.203 89.6025L791 75" stroke="#4E887A" stroke-width="13" stroke-linecap="round" id="svg_2"/><path opacity="0.5" d="M7 603L21.7972 588.398C27.6386 582.633 37.0281 582.633 42.8695 588.397L47.1305 592.602C52.9719 598.367 62.3614 598.367 68.2028 592.603L83 578" stroke="#4E887A" stroke-width="13" stroke-linecap="round" id="svg_3"/><path opacity="0.5" d="M88 615L102.797 600.398C108.639 594.633 118.028 594.633 123.869 600.397L128.131 604.602C133.972 610.367 143.361 610.367 149.203 604.603L164 590" stroke="#4E887A" stroke-width="13" stroke-linecap="round" id="svg_4"/><circle opacity="0.5" cx="787.5" cy="547.5" r="20.5" fill="#4E887A" id="svg_5"/><circle opacity="0.5" cx="780.5" cy="596.5" r="13.5" fill="#4E887A" id="svg_6"/><circle opacity="0.5" cx="819" cy="575" r="11" fill="#4E887A" id="svg_7"/></g></svg>